<svg width="400" height="720" viewBox="0 0 400 720" xmlns="http://www.w3.org/2000/svg" xmlns:xlink="http://www.w3.org/1999/xlink" overflow="visible"><defs></defs><path d="M0 720 394 720C394 720 398.42 622.23 398.21 608.31 396.9 521.43 393.62 288.98 393.62 175.39 393.62 127.19 400 0 400 0L0 0 0 720Z" fill="#264653"/><g><path d="M246.26 151.6 274.19 151.6C278.07 151.6 281.6 149.35 283.25 145.84L351.52 0 327.61 0 273.15 116.05C271.83 118.86 269.01 120.65 265.91 120.65L254.56 120.65C251.44 120.65 248.61 118.84 247.3 116.01L193.55 0 169.38 0 237.2 145.82C238.84 149.35 242.37 151.6 246.26 151.6Z" fill="#FFFFFF"/><path d="M254.56 120.65 265.91 120.65C269.01 120.65 271.83 118.86 273.15 116.05L327.61 0 193.55 0 247.3 116.02C248.61 118.84 251.44 120.65 254.56 120.65Z" fill="#E76F51"/><path d="M24.78 145.84 93.06 0 69.14 0 14.68 116.05C13.36 118.86 10.54 120.65 7.44 120.65L0 120.65 0 151.6 15.73 151.6C19.61 151.6 23.14 149.36 24.78 145.84Z" fill="#FFFFFF"/><path d="M14.68 116.05 69.14 0 0 0 0 120.65 7.44 120.65C10.54 120.65 13.37 118.86 14.68 116.05Z" fill="#E76F51"/><path d="M246.26 535.68 274.19 535.68C278.07 535.68 281.6 533.43 283.25 529.92L360.87 364.1C362.13 361.41 362.13 358.3 360.87 355.61L283.25 190.08C281.6 186.57 278.07 184.33 274.2 184.33L246.26 184.33C242.37 184.33 238.84 186.58 237.2 190.11L160.08 355.64C158.83 358.32 158.83 361.4 160.08 364.08L237.2 529.9C238.84 533.42 242.37 535.68 246.26 535.68ZM183.89 356.49 247.3 219.91C248.61 217.09 251.44 215.28 254.56 215.28L265.92 215.28C269.02 215.28 271.84 217.07 273.16 219.88L337.38 356.46C338.39 358.61 338.39 361.11 337.38 363.26L273.15 500.13C271.83 502.94 269.01 504.73 265.91 504.73L254.56 504.73C251.44 504.73 248.61 502.92 247.3 500.09L183.89 363.22C182.9 361.08 182.9 358.62 183.89 356.49Z" fill="#FFFFFF"/><path d="M254.56 504.72 265.91 504.72C269.01 504.72 271.83 502.93 273.15 500.12L337.38 363.25C338.39 361.09 338.39 358.6 337.38 356.45L273.16 219.87C271.84 217.06 269.02 215.27 265.92 215.27L254.56 215.27C251.45 215.27 248.62 217.08 247.3 219.9L183.89 356.48C182.9 358.61 182.9 361.08 183.89 363.21L247.3 500.08C248.61 502.92 251.44 504.72 254.56 504.72Z" fill="#E76F51"/><path d="M24.78 529.92 102.4 364.1C103.66 361.41 103.66 358.3 102.4 355.61L24.79 190.08C23.14 186.57 19.61 184.33 15.74 184.33L0 184.33 0 215.28 7.45 215.28C10.55 215.28 13.37 217.07 14.69 219.88L78.91 356.46C79.92 358.61 79.92 361.11 78.91 363.26L14.68 500.12C13.36 502.93 10.54 504.72 7.44 504.72L0 504.72 0 535.67 15.73 535.67C19.61 535.68 23.14 533.43 24.78 529.92Z" fill="#FFFFFF"/><path d="M14.68 500.12 78.91 363.25C79.92 361.09 79.92 358.6 78.91 356.45L14.69 219.87C13.37 217.06 10.55 215.27 7.45 215.27L0 215.27 0 504.72 7.44 504.72C10.54 504.72 13.37 502.93 14.68 500.12Z" fill="#E76F51"/><path d="M274.2 568.4 246.26 568.4C242.37 568.4 238.84 570.65 237.2 574.18L169.26 720 193.44 720 247.3 603.98C248.61 601.16 251.44 599.35 254.56 599.35L265.92 599.35C269.02 599.35 271.84 601.14 273.16 603.95L327.73 720 351.65 720 283.26 574.15C281.61 570.64 278.08 568.4 274.2 568.4Z" fill="#FFFFFF"/><path d="M265.92 599.35 254.56 599.35C251.45 599.35 248.62 601.16 247.3 603.98L193.43 720 327.72 720 273.15 603.94C271.84 601.14 269.02 599.35 265.92 599.35Z" fill="#E76F51"/><g><path d="M386.36 353.92 299.31 167.95 377.81 0 351.52 0 283.25 145.84C281.6 149.35 278.07 151.6 274.19 151.6L246.26 151.6C242.37 151.6 238.83 149.34 237.19 145.82L169.37 0 142.63 0 221.13 167.95 134.08 353.92C132.32 357.68 132.32 362.02 134.08 365.78L221.13 552.02 142.51 720 169.26 720 237.2 574.17C238.84 570.65 242.38 568.39 246.26 568.39L274.2 568.39C278.08 568.39 281.61 570.63 283.25 574.14L351.64 720 377.93 720 299.31 552.02 386.36 365.78C388.12 362.03 388.11 357.68 386.36 353.92ZM360.88 364.1 283.26 529.92C281.61 533.43 278.08 535.68 274.2 535.68L246.27 535.68C242.38 535.68 238.84 533.42 237.2 529.9L160.08 364.08C158.84 361.4 158.84 358.31 160.08 355.64L237.2 190.11C238.84 186.59 242.38 184.33 246.26 184.33L274.2 184.33C278.08 184.33 281.61 186.57 283.25 190.08L360.87 355.61C362.13 358.3 362.13 361.41 360.88 364.1Z" fill="#E9C369"/><path d="M40.84 167.95 119.34 0 93.06 0 24.78 145.84C23.13 149.35 19.6 151.6 15.72 151.6L0 151.6 0 151.93 0 184.32 15.73 184.32C19.61 184.32 23.14 186.56 24.78 190.07L102.4 355.6C103.66 358.29 103.66 361.4 102.4 364.09L24.78 529.92C23.13 533.43 19.6 535.68 15.72 535.68L0 535.68 0 536.01 0 568.4 15.73 568.4C19.61 568.4 23.14 570.64 24.78 574.15L93.17 720 119.46 720 40.84 552.02 127.89 365.78C129.65 362.02 129.65 357.68 127.89 353.92L40.84 167.95Z" fill="#E9C369"/></g><path d="M15.73 568.4 0 568.4 0 599.35 7.45 599.35C10.55 599.35 13.37 601.14 14.69 603.95L69.26 720 93.18 720 24.79 574.15C23.14 570.64 19.61 568.4 15.73 568.4Z" fill="#FFFFFF"/><path d="M7.45 599.35 0 599.35 0 720 69.26 720 14.69 603.94C13.37 601.14 10.55 599.35 7.45 599.35Z" fill="#E76F51"/></g></svg>